<svg xmlns="http://www.w3.org/2000/svg" fill="none" viewBox="0 0 283 64"><path fill="black" d="m141.04 16 c 11.04 0 16 9.08 16 16 v 1 h -8.98 v -1 c 0 -4.41 -3.86 -7.02 -7.02 -7.02 s -7.02 2.61 -7.02 7.02 v 1 h -8.98 v -1 c 0 -6.92 4.96 -16 16 -16 Z m 0 0 c 11.04 0 16 9.08 16 16 v 1 h -8.98 v -1 c 0 -4.41 -3.86 -7.02 -7.02 -7.02 s -7.02 2.61 -7.02 7.02 v 1 h -8.98 v -1 c 0 -6.92 4.96 -16 16 -16 Z"/><path fill="black" d="M 0 0 h 64 v 64 H 0 V 0 Z"/><path fill="url(#a)" d="M 0 0 h 64 v 64 H 0 V 0 Z"/><defs><linearGradient id="a" x1="0" y1="0" x2="0" y2="64" gradientUnits="userSpaceOnUse"><stop stop-color="#000"/><stop offset="1" stop-color="#000"/></linearGradient></defs></svg>
